<svg width="30" height="28" viewBox="0 0 30 28" fill="none" xmlns="http://www.w3.org/2000/svg">
<path d="M0 6.94319C0 6.12982 0.91937 5.65669 1.58124 6.12946L6.22944 9.4496C6.66163 9.75831 7.25976 9.6753 7.59155 9.26056L14.2191 0.976086C14.6195 0.47568 15.3805 0.475679 15.7809 0.976086L22.4084 9.26056C22.7402 9.6753 23.3384 9.75831 23.7706 9.4496L28.4188 6.12946C29.0806 5.65669 30 6.12982 30 6.94319V19C30 19.5523 29.5523 20 29 20H1C0.447716 20 0 19.5523 0 19V6.94319Z" fill="#FFD43A"/>
<path d="M0 22H30V26.5C30 27.0523 29.5523 27.5 29 27.5H1C0.447716 27.5 0 27.0523 0 26.5V22Z" fill="#FFD43A"/>
</svg>
