<svg width="19" height="18" viewBox="0 0 19 18" fill="none" xmlns="http://www.w3.org/2000/svg">
<path d="M17.4167 6.4385C17.3999 5.87725 17.2394 5.32969 16.9505 4.84821C16.6616 4.36673 16.254 3.96743 15.7667 3.6885C15.6498 2.89002 15.2491 2.16042 14.6379 1.63345C14.0268 1.10647 13.2461 0.817438 12.4392 0.819329C12.1297 0.818796 11.8215 0.85886 11.5225 0.938496C10.8915 0.336113 10.0528 0 9.18042 0C8.30808 0 7.46929 0.336113 6.83833 0.938496C6.5393 0.85886 6.23112 0.818796 5.92167 0.819329C5.11154 0.813007 4.3265 1.10004 3.71151 1.62741C3.09652 2.15479 2.69312 2.88688 2.57583 3.6885C2.08681 3.96628 1.67738 4.36509 1.38684 4.84665C1.0963 5.32821 0.934394 5.87636 0.916667 6.4385C0.673551 6.4385 0.440394 6.53507 0.268485 6.70698C0.0965771 6.87889 0 7.11205 0 7.35516C4.08762e-05 8.96421 0.423618 10.5449 1.22816 11.9384C2.0327 13.3318 3.18986 14.489 4.58333 15.2935V16.5218C4.58333 16.7649 4.67991 16.9981 4.85182 17.17C5.02373 17.3419 5.25688 17.4385 5.5 17.4385H12.8333C13.0764 17.4385 13.3096 17.3419 13.4815 17.17C13.6534 16.9981 13.75 16.7649 13.75 16.5218V15.2935C15.1435 14.489 16.3006 13.3318 17.1052 11.9384C17.9097 10.5449 18.3333 8.96421 18.3333 7.35516C18.3333 7.11205 18.2368 6.87889 18.0648 6.70698C17.8929 6.53507 17.6598 6.4385 17.4167 6.4385ZM2.75 6.4385C2.77328 6.14889 2.88259 5.87285 3.0639 5.64581C3.2452 5.41877 3.49022 5.25111 3.7675 5.16433L4.52833 4.926L4.38167 4.14683C4.38406 3.9494 4.42532 3.75438 4.50309 3.57291C4.58086 3.39143 4.69361 3.22705 4.83491 3.08915C4.97622 2.95125 5.1433 2.84254 5.32662 2.76922C5.50994 2.6959 5.70591 2.65941 5.90333 2.66183C6.16806 2.66031 6.42918 2.72323 6.66417 2.84516L7.40667 3.25766L7.865 2.55183C8.00834 2.33819 8.20206 2.16311 8.42907 2.04205C8.65608 1.92099 8.9094 1.85767 9.16667 1.85767C9.42394 1.85767 9.67725 1.92099 9.90426 2.04205C10.1313 2.16311 10.325 2.33819 10.4683 2.55183L10.9267 3.25766L11.6692 2.84516C11.9041 2.72323 12.1653 2.66031 12.43 2.66183C12.8265 2.65684 13.2091 2.80775 13.4954 3.08207C13.7817 3.35638 13.9488 3.73216 13.9608 4.1285L13.8142 4.90766L14.5658 5.16433C14.8431 5.25111 15.0881 5.41877 15.2694 5.64581C15.4507 5.87285 15.56 6.14889 15.5833 6.4385H2.75Z" fill="#939393"/>
</svg>
